<svg xmlns="http://www.w3.org/2000/svg" viewBox="0 0 360 220" role="img" aria-labelledby="titulo">
  <title id="titulo">Acceso al Libro de Reclamaciones</title>
  <defs>
    <linearGradient id="sombra" x1="0" x2="1" y1="0" y2="1">
      <stop offset="0" stop-color="#0b4ea2" stop-opacity="0.08" />
      <stop offset="1" stop-color="#0b4ea2" stop-opacity="0.2" />
    </linearGradient>
  </defs>
  <rect x="16" y="16" width="328" height="188" rx="18" fill="#ffffff" stroke="#0b4ea2" stroke-width="4" />
  <text x="50%" y="68" font-family="'Segoe UI', Arial, sans-serif" font-size="36" font-weight="600" fill="#0b4ea2" text-anchor="middle">
    Libro de
  </text>
  <text x="50%" y="106" font-family="'Segoe UI', Arial, sans-serif" font-size="36" font-weight="600" fill="#0b4ea2" text-anchor="middle">
    Reclamaciones
  </text>
  <g transform="translate(60 120)">
    <path d="M0 0h240v60a12 12 0 0 1-12 12H12A12 12 0 0 1 0 60V0z" fill="url(#sombra)" />
    <path d="M10 6h100a18 18 0 0 1 18 18v58a10 10 0 0 1-10-10c0-12-8-20-24-20H26c-10 0-16 4-16 12V6z" fill="#eef4ff" stroke="#0b4ea2" stroke-width="3" />
    <path d="M230 6H130a18 18 0 0 0-18 18v58a10 10 0 0 0 10-10c0-12 8-20 24-20h68c10 0 16 4 16 12V6z" fill="#ffffff" stroke="#0b4ea2" stroke-width="3" />
    <path d="M110 6c12 0 20 8 24 18 4-10 12-18 24-18" fill="none" stroke="#0b4ea2" stroke-width="3" stroke-linecap="round" />
    <path d="M40 32h60" stroke="#0b4ea2" stroke-width="3" stroke-linecap="round" />
    <path d="M160 32h60" stroke="#0b4ea2" stroke-width="3" stroke-linecap="round" />
    <path d="M40 46h52" stroke="#0b4ea2" stroke-width="3" stroke-linecap="round" />
    <path d="M160 46h52" stroke="#0b4ea2" stroke-width="3" stroke-linecap="round" />
  </g>
</svg>
